<svg xmlns="http://www.w3.org/2000/svg"  viewBox="0 0 128 128" width="64px" height="64px"><path d="M 59.699219 17.300781 C 50.899219 17.300781 43.699219 24.500781 43.699219 33.300781 C 43.699219 33.900781 43.899609 34.400781 44.099609 34.800781 L 43.699219 34.800781 L 43.699219 39.800781 L 25 39.800781 C 16.2 39.800781 9 47.000781 9 55.800781 L 9 81.699219 C 9 89.499219 14.6 96.000391 22 97.400391 L 22 107.69922 C 22 108.89922 22.700391 110 23.900391 110.5 C 24.300391 110.7 24.7 110.69922 25 110.69922 C 25.8 110.69922 26.499609 110.40078 27.099609 109.80078 C 34.899609 102.00078 45.300781 97.699219 56.300781 97.699219 L 68.300781 97.699219 C 77.100781 97.699219 84.300781 90.499219 84.300781 81.699219 L 84.300781 50.800781 C 84.300781 42.000781 77.100781 34.800781 68.300781 34.800781 L 49.199219 34.800781 C 49.499219 34.400781 49.599609 33.800781 49.599609 33.300781 C 49.599609 27.800781 54.099609 23.300781 59.599609 23.300781 L 103 23.300781 C 108.5 23.300781 113 27.800781 113 33.300781 L 113 59.199219 C 113 64.699219 108.5 69.199219 103 69.199219 C 101.3 69.199219 100 70.499219 100 72.199219 L 100 78.599609 C 97.8 76.999609 95.499609 75.500781 93.099609 74.300781 C 91.599609 73.600781 89.799609 74.099609 89.099609 75.599609 C 88.299609 77.099609 88.900391 78.899609 90.400391 79.599609 C 94.300391 81.599609 97.800391 84.099219 100.90039 87.199219 C 101.50039 87.799219 102.2 88.099609 103 88.099609 C 103.4 88.099609 103.79961 88.000391 104.09961 87.900391 C 105.19961 87.400391 106 86.299609 106 85.099609 L 106 74.900391 C 113.4 73.500391 119 66.999219 119 59.199219 L 119 33.300781 C 119 24.500781 111.8 17.300781 103 17.300781 L 59.699219 17.300781 z M 25 45.800781 L 68.300781 45.800781 C 73.800781 45.800781 78.300781 50.300781 78.300781 55.800781 L 78.300781 81.699219 C 78.300781 87.199219 73.800781 91.699219 68.300781 91.699219 L 56.300781 91.699219 C 46.000781 91.699219 36.1 94.999609 28 101.09961 L 28 94.699219 C 28 92.999219 26.7 91.699219 25 91.699219 C 19.5 91.699219 15 87.199219 15 81.699219 L 15 55.800781 C 15 50.300781 19.5 45.800781 25 45.800781 z M 29.300781 58.199219 C 27.600781 58.199219 26.300781 59.499219 26.300781 61.199219 C 26.300781 62.899219 27.700781 64.199219 29.300781 64.199219 L 64 64.199219 C 65.7 64.199219 67 62.899219 67 61.199219 C 67 59.499219 65.7 58.199219 64 58.199219 L 29.300781 58.199219 z M 29.300781 71.199219 C 27.600781 71.199219 26.300781 72.499219 26.300781 74.199219 C 26.300781 75.899219 27.700781 77.199219 29.300781 77.199219 L 42.300781 77.199219 C 44.000781 77.199219 45.300781 75.899219 45.300781 74.199219 C 45.300781 72.499219 44.000781 71.199219 42.300781 71.199219 L 29.300781 71.199219 z"/></svg>